<?xml version="1.0" ?><svg height="20px" version="1.1" viewBox="0 0 20 20" width="20px" xmlns="http://www.w3.org/2000/svg" xmlns:xlink="http://www.w3.org/1999/xlink"><title/><g fill="none" fill-rule="evenodd" id="Icons" stroke="none" stroke-width="1"><g id="Shape" transform="translate(-2.000000, -2.000000)"><circle cx="12" cy="12" r="9" stroke="#000000" stroke-linecap="round" stroke-linejoin="round" stroke-width="2"/><path d="M16,15.6866911 C15.1742804,14.6428747 13.6497317,14 12.0000205,14 C10.3503093,14 8.82574506,14.6428334 8,15.6866391" stroke="#000000" stroke-linecap="round" stroke-linejoin="round" stroke-width="2"/><path d="M15.0043926,8 C15.5566774,8 16.0043926,8.44771525 16.0043926,9 C16.0043926,9.51283584 15.6183524,9.93550716 15.1210137,9.99327227 L15.0043926,10 C14.4477153,10 14,9.55228475 14,9 C14,8.48716416 14.3860402,8.06449284 14.8833789,8.00672773 L15.0043926,8 Z" fill="#000000" fill-rule="nonzero"/><path d="M9.00439261,8 C9.55667736,8 10.0043926,8.44771525 10.0043926,9 C10.0043926,9.51283584 9.61835242,9.93550716 9.12101374,9.99327227 L9.00439261,10 C8.44771525,10 8,9.55228475 8,9 C8,8.48716416 8.38604019,8.06449284 8.88337887,8.00672773 L9.00439261,8 Z" fill="#000000" fill-rule="nonzero"/></g></g></svg>